<svg width="58" height="58" viewBox="0 0 58 58" fill="none" xmlns="http://www.w3.org/2000/svg">
<path d="M29 0C13.0117 0 0 13.0117 0 29C0 41.6484 8.14453 52.4258 19.457 56.3789C19.6172 56.4922 19.8086 56.5625 20.0117 56.5664C22.8398 57.4922 25.8633 58 29 58C44.9883 58 58 44.9883 58 29C58 13.0117 44.9883 0 29 0ZM29 2C43.8867 2 56 14.1133 56 29C56 40.6602 48.5703 50.6133 38.1992 54.3867C38.0898 54.0625 38 53.582 38 53.2539V48C38 45.9062 36.9766 43.625 35.9688 42.0938C41.5195 41.1562 47.8633 38.2773 47.8633 27.5312C47.8633 24.5859 46.9414 21.9883 45.125 19.8008C45.5234 18.4883 46.0156 15.7188 44.6406 12.2422C44.5312 11.9648 44.3008 11.75 44.0156 11.6562C43.7344 11.5703 41.168 10.9023 35.8398 14.3984C33.6719 13.8398 31.3789 13.5508 29 13.543C26.6328 13.5508 24.3359 13.8398 22.1758 14.3984C16.8477 10.8984 14.2734 11.5664 13.9961 11.6562C13.7109 11.75 13.4805 11.9648 13.3711 12.2422C11.9922 15.7227 12.4844 18.4883 12.8906 19.8008C11.0664 21.9883 10.1445 24.5859 10.1445 27.5312C10.1445 38.1797 16.375 41.1133 21.8789 42.0898C21.1875 42.9648 20.4609 44.0977 20.1406 45.25C18.7188 45.6445 15.8047 45.6562 13.8477 42.3047C13.7773 42.1758 12.0664 39.1367 8.69141 38.9023C8.15625 38.9062 6.79688 38.9922 6.46875 40.0312C6.10547 41.1836 7.37891 42.0586 7.92578 42.4297C7.96094 42.4531 8.01563 42.4844 8.05078 42.5039C8.11328 42.5352 9.57031 43.3008 10.6562 46.0352C10.8828 46.75 12.8711 52.1367 20.0078 51.1875C20.0117 51.9766 20.0078 52.375 20 52.6914V53.25C20 53.5742 19.9023 54.0625 19.793 54.3789C9.42188 50.6055 2 40.6523 2 29C2 14.1133 14.1133 2 29 2ZM28.7578 5.00391C24.8594 5.04687 21.0039 6.07422 17.6094 8.01562C17.1289 8.28516 16.9609 8.89844 17.2344 9.375C17.418 9.69922 17.7539 9.88281 18.1055 9.88281C18.2734 9.88281 18.4414 9.83984 18.5977 9.75C22.7344 7.39062 27.6172 6.50781 32.3398 7.26562C32.8828 7.35547 33.3945 6.98438 33.4844 6.4375C33.5703 5.89062 33.1992 5.37891 32.6562 5.28906C31.3633 5.08203 30.0586 4.98828 28.7578 5.00391ZM36.6562 6.38672C36.2695 6.40234 35.9062 6.64844 35.7656 7.03516C35.5703 7.55469 35.832 8.12891 36.3516 8.32422C37.0625 8.58984 37.7656 8.89453 38.4531 9.23828C38.5977 9.3125 38.75 9.34766 38.9023 9.34766C39.2656 9.34766 39.6172 9.14844 39.7969 8.79688C40.043 8.30859 39.8437 7.70312 39.3516 7.45312C38.6055 7.07812 37.8281 6.73828 37.0508 6.44922C36.9219 6.40234 36.7891 6.38281 36.6562 6.38672ZM42.9844 13.5469C44.0586 16.707 43.3242 18.9961 43.0586 19.6445C42.9141 20.0039 42.9883 20.4141 43.25 20.6992C44.9805 22.5937 45.8594 24.8906 45.8594 27.5312C45.8594 37.668 39.8516 39.7031 33.9688 40.3555C33.5742 40.3984 33.2422 40.6719 33.125 41.0508C33.0039 41.4297 33.125 41.8437 33.4258 42.1055C34.2148 42.7812 36 45.7148 36 48V53.2539C36 53.2734 36.0039 54.1445 36.2891 54.9922C33.9687 55.6445 31.5273 56 29 56C26.4688 56 24.0234 55.6406 21.6992 54.9883C21.9883 54.1367 21.9961 53.2656 21.9961 53.25L22 52.7148C22.0039 52.2617 22.0117 51.6484 22 49.9961C21.9961 49.6914 21.8594 49.4102 21.625 49.2188C21.3906 49.0312 21.082 48.9609 20.7852 49.0234C14.0703 50.4883 12.6172 45.6406 12.5625 45.4375C12.5508 45.4023 12.5391 45.3711 12.5273 45.3359C11.5664 42.8984 10.3008 41.6562 9.54688 41.0938C11.1758 41.668 12.0859 43.2578 12.1094 43.293C14.7539 47.8203 19.1211 47.9375 21.4062 46.9141C21.7227 46.7734 21.9414 46.4805 21.9883 46.1406C22.1914 44.7109 23.7617 42.8203 24.5547 42.125C24.8516 41.8633 24.9688 41.4492 24.8477 41.0742C24.7305 40.6953 24.4023 40.4219 24.0117 40.3789C18.1445 39.7109 12.1445 37.6602 12.1445 27.5312C12.1445 24.8945 13.0234 22.5937 14.7617 20.6992C15.0234 20.4141 15.0977 20.0039 14.9492 19.6445C14.6836 18.9961 13.9453 16.7148 15.0156 13.5508C15.8672 13.5781 17.9414 13.9414 21.4336 16.3125C21.6758 16.4766 21.9844 16.5273 22.2656 16.4492C24.3555 15.8672 26.6875 15.5547 29 15.543C31.3203 15.5547 33.6523 15.8672 35.7461 16.4492C36.0273 16.5273 36.332 16.4766 36.5742 16.3125C40.0859 13.9297 42.1602 13.5742 42.9844 13.5469ZM19.375 32.3945C18.9844 32.3477 18.5898 32.5273 18.3867 32.8867L17.3867 34.6172C17.1094 35.0977 17.2734 35.707 17.75 35.9844C17.9062 36.0742 18.0781 36.1172 18.25 36.1172C18.5938 36.1172 18.9297 35.9375 19.1133 35.6172L20.1133 33.8867C20.3906 33.4102 20.2305 32.7969 19.75 32.5195C19.6289 32.4531 19.5039 32.4102 19.375 32.3945ZM38.625 32.3945C38.4961 32.4102 38.3672 32.4531 38.25 32.5195C37.7695 32.7969 37.6094 33.4102 37.8867 33.8906L38.8867 35.6211C39.0703 35.9414 39.4062 36.1211 39.75 36.1211C39.9219 36.1211 40.0938 36.0742 40.25 35.9844C40.7305 35.707 40.8906 35.0977 40.6133 34.6211L39.6133 32.8906C39.4063 32.5312 39.0117 32.3477 38.625 32.3945ZM34.1875 34.3438C34.0586 34.3242 33.9219 34.332 33.7852 34.3711C33.2539 34.5117 32.9375 35.0586 33.0781 35.5938L33.5977 37.5273C33.7188 37.9727 34.1211 38.2656 34.5625 38.2656C34.6523 38.2656 34.7383 38.2539 34.8242 38.2344C35.3555 38.0898 35.6758 37.543 35.5312 37.0078L35.0156 35.0781C34.9062 34.6758 34.5703 34.3984 34.1875 34.3438ZM23.8164 34.3438C23.4297 34.3984 23.0938 34.6758 22.9844 35.0781L22.4688 37.0117C22.3242 37.543 22.6445 38.0898 23.1758 38.2344C23.2617 38.2578 23.3477 38.2656 23.4375 38.2656C23.875 38.2656 24.2812 37.9727 24.4023 37.5273L24.9219 35.5938C25.0625 35.0625 24.7461 34.5117 24.2148 34.3711C24.0781 34.332 23.9453 34.3281 23.8164 34.3438ZM29 35C28.4453 35 28 35.4453 28 36V38C28 38.5547 28.4453 39 29 39C29.5547 39 30 38.5547 30 38V36C30 35.4453 29.5547 35 29 35Z" fill="white"/>
</svg>
